<svg width="320" height="320" viewBox="0 0 320 320" fill="none" xmlns="http://www.w3.org/2000/svg">
  <rect width="320" height="320" rx="160" fill="#F3EBD9"/>
  <circle cx="160" cy="160" r="124" fill="#E6D9BE"/>
  <circle cx="160" cy="126" r="52" fill="#2F684E"/>
  <path d="M74 254C74 210.922 108.922 176 152 176H168C211.078 176 246 210.922 246 254V266H74V254Z" fill="#204736"/>
  <path d="M160 94C142.327 94 128 108.327 128 126C128 143.673 142.327 158 160 158C177.673 158 192 143.673 192 126C192 108.327 177.673 94 160 94Z" fill="#FFF9EE"/>
  <path d="M160 182C129.072 182 104 207.072 104 238V266H216V238C216 207.072 190.928 182 160 182Z" fill="#FFF9EE"/>
</svg>
